<svg id="Layer_1" data-name="Layer 1" xmlns="http://www.w3.org/2000/svg" xmlns:xlink="http://www.w3.org/1999/xlink" width="170.3" height="181.59" viewBox="0 0 170.3 181.59"><defs><style>.cls-1{fill:url(#Violet);}.cls-2{fill:url(#linear-gradient);}.cls-3{fill:url(#radial-gradient);}.cls-4{fill:url(#radial-gradient-2);}.cls-19,.cls-20,.cls-5,.cls-8{stroke-miterlimit:10;}.cls-5{fill:url(#Violet-2);stroke:url(#Violet-3);}.cls-6{fill:url(#radial-gradient-3);}.cls-7{fill:url(#radial-gradient-4);}.cls-11,.cls-8,.cls-9{fill:none;}.cls-8{stroke-width:2.5px;stroke:url(#radial-gradient-5);}.cls-9{stroke:#666;stroke-width:3px;}.cls-10,.cls-11,.cls-13,.cls-14,.cls-15,.cls-16,.cls-17,.cls-20{stroke:#000;}.cls-10{fill:url(#linear-gradient-2);}.cls-12{fill:#635faa;}.cls-13{fill:url(#linear-gradient-3);}.cls-14{fill:url(#linear-gradient-4);}.cls-15{fill:url(#linear-gradient-5);}.cls-16{fill:url(#linear-gradient-6);}.cls-17{fill:url(#linear-gradient-7);}.cls-18,.cls-19{fill:#fbb03b;}.cls-19{stroke:#4e457f;}.cls-21{fill:url(#radial-gradient-6);}.cls-22{font-size:5.98px;}.cls-22,.cls-24,.cls-26,.cls-28,.cls-30{fill:#fff;font-family:MyriadPro-Regular, Myriad Pro;}.cls-23{fill:url(#radial-gradient-7);}.cls-24{font-size:5.98px;}.cls-25{fill:url(#radial-gradient-8);}.cls-26{font-size:5.98px;}.cls-27{fill:url(#radial-gradient-9);}.cls-28{font-size:5.98px;}.cls-29{fill:url(#radial-gradient-10);}.cls-30{font-size:5.98px;}.cls-31{fill:url(#Violet-4);}.cls-32{fill:url(#radial-gradient-11);}.cls-33{fill:url(#radial-gradient-12);}.cls-34{fill:url(#radial-gradient-13);}</style><linearGradient id="Violet" x1="56.94" y1="45.66" x2="70.45" y2="45.66" gradientUnits="userSpaceOnUse"><stop offset="0" stop-color="#7c76b7"/><stop offset="0.5" stop-color="#6561ab"/><stop offset="1" stop-color="#483f99"/></linearGradient><linearGradient id="linear-gradient" x1="43.52" y1="45.66" x2="57.03" y2="45.66" gradientUnits="userSpaceOnUse"><stop offset="0" stop-color="#483f99"/><stop offset="0.5" stop-color="#6561ab"/><stop offset="1" stop-color="#7c76b7"/></linearGradient><radialGradient id="radial-gradient" cx="15.31" cy="24.66" r="2.05" xlink:href="#Violet"/><radialGradient id="radial-gradient-2" cx="19.39" cy="24.66" r="2.05" xlink:href="#Violet"/><linearGradient id="Violet-2" x1="63.97" y1="83.98" x2="204.33" y2="83.98" gradientTransform="translate(26.65 -32.35) rotate(13.12)" xlink:href="#Violet"/><linearGradient id="Violet-3" x1="58.82" y1="71.78" x2="209.92" y2="71.78" xlink:href="#Violet"/><radialGradient id="radial-gradient-3" cx="47.53" cy="116.49" r="8.29" gradientTransform="matrix(1.11, 0.18, -0.06, 1.03, 6.44, -9.24)" xlink:href="#linear-gradient"/><radialGradient id="radial-gradient-4" cx="41.99" cy="135.23" r="8.38" gradientTransform="matrix(1.11, 0.18, -0.06, 1.03, 6.44, -9.24)" xlink:href="#linear-gradient"/><radialGradient id="radial-gradient-5" cx="100.41" cy="45.36" r="29.73" xlink:href="#Violet"/><linearGradient id="linear-gradient-2" x1="132.91" y1="28.19" x2="146.86" y2="28.19" gradientUnits="userSpaceOnUse"><stop offset="0" stop-color="#ffff93"/><stop offset="0.51" stop-color="#fdffe9"/><stop offset="1" stop-color="#ffff9f"/></linearGradient><linearGradient id="linear-gradient-3" x1="396.32" y1="1157.81" x2="410.21" y2="1157.81" gradientTransform="matrix(0.52, -0.86, 0.86, 0.52, -1030.57, -215.72)" xlink:href="#linear-gradient-2"/><linearGradient id="linear-gradient-4" x1="238.63" y1="283.32" x2="252.52" y2="283.32" gradientTransform="translate(-102.46 -180.17) rotate(-10.04)" xlink:href="#linear-gradient-2"/><linearGradient id="linear-gradient-5" x1="-1947.56" y1="1002.19" x2="-1930.56" y2="1002.19" gradientTransform="translate(-686.18 2096.33) rotate(140.91)" xlink:href="#linear-gradient-2"/><linearGradient id="linear-gradient-6" x1="433.83" y1="393.94" x2="455.2" y2="393.94" gradientTransform="translate(-322.91 -303.21) rotate(-0.98)" xlink:href="#linear-gradient-2"/><linearGradient id="linear-gradient-7" x1="548.76" y1="638.72" x2="574.05" y2="638.72" gradientTransform="translate(-612.71 -404.02) rotate(-13.26)" xlink:href="#linear-gradient-2"/><radialGradient id="radial-gradient-6" cx="-515.09" cy="-282.07" r="4.22" gradientTransform="translate(363.11 652.37) rotate(26.33)" gradientUnits="userSpaceOnUse"><stop offset="0" stop-color="#7fbaff"/><stop offset="0.49" stop-color="#3c58ff"/><stop offset="0.95" stop-color="blue"/></radialGradient><radialGradient id="radial-gradient-7" cx="-487.77" cy="-66.44" r="4.22" gradientTransform="translate(516.63 259.96) rotate(6.7)" xlink:href="#radial-gradient-6"/><radialGradient id="radial-gradient-8" cx="92.3" cy="149.43" r="4.22" gradientTransform="matrix(1, 0, 0, 1, 0, 0)" xlink:href="#radial-gradient-6"/><radialGradient id="radial-gradient-9" cx="116.15" cy="112.23" r="4.22" gradientTransform="translate(-76.34 64.87) rotate(0.13)" xlink:href="#radial-gradient-6"/><radialGradient id="radial-gradient-10" cx="-989.8" cy="-328.33" r="4.22" gradientTransform="matrix(0.74, 0.67, -0.67, 0.74, 522.93, 1057.34)" xlink:href="#radial-gradient-6"/><linearGradient id="Violet-4" x1="41.55" y1="163.95" x2="76.3" y2="163.95" xlink:href="#Violet"/><radialGradient id="radial-gradient-11" cx="96.61" cy="183.47" r="18.37" xlink:href="#linear-gradient"/><radialGradient id="radial-gradient-12" cx="140.78" cy="186.39" r="17.47" xlink:href="#linear-gradient"/><radialGradient id="radial-gradient-13" cx="182.94" cy="183.76" r="16.84" xlink:href="#linear-gradient"/></defs><path class="cls-1" d="M60.34,43.7a8,8,0,0,1,0-2.43s.1-.24.21-.47A26.16,26.16,0,0,1,64,35.18c2.64-3.36,6.17-11.94,3.45-14.84a3.44,3.44,0,0,0-3.34-.9c-2.17.68-2.74,4.14-3.55,8.11-2.2,10.74-3,9.4-3.45,14-1.21,11.61,4.51,13.11,4.78,26.65a3.47,3.47,0,0,0,1.49,3c2.29,1.67,4.94.87,6.17-1.66C74,60.45,60.63,44.42,60.34,43.7Z" transform="translate(-39.63 -18.06)"/><path class="cls-2" d="M53.63,43.7a7.38,7.38,0,0,0,0-2.43l-.2-.47A25.6,25.6,0,0,0,50,35.18c-2.64-3.36-6.17-11.94-3.44-14.84a3.42,3.42,0,0,1,3.33-.9c2.18.68,2.74,4.14,3.56,8.11,2.2,10.74,3,9.4,3.44,14,1.21,11.61-4.5,13.11-4.78,26.65a3.47,3.47,0,0,1-1.49,3c-2.29,1.67-4.93.87-6.17-1.66C40,60.45,53.34,44.42,53.63,43.7Z" transform="translate(-39.63 -18.06)"/><ellipse class="cls-3" cx="15.31" cy="24.66" rx="2.21" ry="1.87"/><ellipse class="cls-4" cx="19.39" cy="24.66" rx="2.21" ry="1.87"/><path class="cls-5" d="M58.86,111.24c5.31.43,7.91.1,12.48.31,3.76.17,5.87-.07,6.58-1.12s.39-2-.78-3.92-2.86-5-2.46-8.23c1-8,12.52-11.88,32.44-19.4a22.44,22.44,0,0,1,19.63,1.21c7.2,3.75,12.58,7.11,17.33,10.07,7.18,4.48,12.37,7.72,19.11,9.24,15.24,3.44,28.78-4.17,34.56-7.42,8.13-4.57,10.63-7.59,10.26-8.9-.08-.29-.44-.58-1.24-1.21a15.63,15.63,0,0,0-7.71-2.6,20.94,20.94,0,0,0-2.63-.13,8.23,8.23,0,0,1-2.59-.3,14.91,14.91,0,0,1-5-2.38c-1.44-1.07-4.45-3.29-4.52-6.41a6.27,6.27,0,0,1,.81-3,56.16,56.16,0,0,1,4.12-7c1.47-2.24,2.75-4.18,3-5.44a7,7,0,0,0,.1-1.48,6.46,6.46,0,0,0-.49-1.95,8.65,8.65,0,0,0-.8-1.42l-.2-.31a10.84,10.84,0,0,0-3.8-3.24c-1.52-.88-38.92-17.28-39.82-17.59l.41-1.4c.91.31,35.73,15.86,40.16,18.08A10.66,10.66,0,0,1,192,48.67l.27.4a11,11,0,0,1,.91,1.64,7.78,7.78,0,0,1,.59,2.39,8.33,8.33,0,0,1-.13,1.83c-.3,1.53-1.64,3.57-3.2,5.94a53.86,53.86,0,0,0-4,6.82,4.94,4.94,0,0,0-.69,2.33c.05,2.44,2.6,4.32,4,5.32a13.07,13.07,0,0,0,4.48,2.16,7,7,0,0,0,2.23.26,20.31,20.31,0,0,1,2.79.14,16.86,16.86,0,0,1,8.41,2.88c1,.77,1.51,1.19,1.72,1.92.71,2.49-3,6-10.91,10.49-5.92,3.32-19.78,11.11-35.54,7.56-7-1.57-12.25-4.86-19.55-9.42-4.72-3-10.07-6.29-17.23-10a22.24,22.24,0,0,0-9.73-2.74,22,22,0,0,0-8.77,1.6c-19.42,7.33-30.11,11.36-31,18.58-.34,2.78.94,4.88,2.07,6.73s2.25,3.71,1.15,5.7c-1.39,2.51-4.71,2.6-8.92,2.71-4.68.12-7.67,0-10.62,2.65" transform="translate(-39.63 -18.06)"/><path class="cls-6" d="M44.81,126.39a6.8,6.8,0,0,1,1-.11,8.34,8.34,0,0,1,1,0c1.27.06,2.53.34,3.62.46a3.46,3.46,0,0,0,2.9-.73,4.83,4.83,0,0,0,1.43-3.35h0a3.74,3.74,0,0,0,3.33-.14A4.67,4.67,0,0,0,60,119.66c.09-.3.17-.62.25-1l.21-1,.36-2.06c.13-.72.28-1.42.47-2.09l-.5-2.06a4.54,4.54,0,0,0-.9-.41,4,4,0,0,0-1-.2,4.3,4.3,0,0,0-1.06.07,5.05,5.05,0,0,0-1.12.4,5.28,5.28,0,0,0-2.68,3.3c-.1.34-.18.68-.25,1s-.1.7-.13,1.06c-.06.7-.05,1.41,0,2.09s.05,1.41.05,2.07h0c-.53-.27-1.1-.58-1.68-.87a14.53,14.53,0,0,0-1.75-.78c-.3-.11-.61-.21-.92-.29a7.52,7.52,0,0,0-1-.15,4.48,4.48,0,0,0-2,.27,5.17,5.17,0,0,0-2,1.44,6,6,0,0,0-1.35,2.5A5.52,5.52,0,0,0,43,125.5Zm-.44-1.31a5,5,0,0,1-.07-.54l.7.46A4.52,4.52,0,0,0,44.37,125.08Zm10.46-4.31.42.76-.43-.14Zm-1.21,2-.54-.84.6.28A5,5,0,0,1,53.62,122.79Zm6.7-10c-.08.24-.14.49-.2.74l-.28-1A3.67,3.67,0,0,1,60.32,112.79ZM59,112.28l.83,2.75-.06.35c-.17,1-.31,2.07-.5,3l-2-5.76A3,3,0,0,1,59,112.28Zm-3.16,1.54a3.56,3.56,0,0,1,.71-.79L59,119.41a4.33,4.33,0,0,1-.39.87A3.05,3.05,0,0,1,58,121l-2.69-6.19A4.82,4.82,0,0,1,55.82,113.82Zm-1,5a15.4,15.4,0,0,1,.2-2.92l2.49,5.42a2.39,2.39,0,0,1-.72.28,2.27,2.27,0,0,1-.74.05l-1.23-2.37Zm-3.23,2.37.28.13,1.55,2.31a3,3,0,0,1-.86,1.33L49,120.26A11.75,11.75,0,0,1,51.59,121.22Zm-3.65-1.07,4.11,5.19a3,3,0,0,1-1.6.28L46,120.84A3.39,3.39,0,0,1,47.94,120.15Zm-2.62,1.31,4.14,4c-.78-.13-1.66-.34-2.59-.44l-.43,0-2.08-1.55A4.19,4.19,0,0,1,45.32,121.46Z" transform="translate(-39.63 -18.06)"/><path class="cls-7" d="M50.34,138.38A3.49,3.49,0,0,0,48.16,136h0a8.1,8.1,0,0,0,1.15-1.54,3.38,3.38,0,0,0,.46-1.56,2.16,2.16,0,0,0-.34-1.28A4.14,4.14,0,0,0,49,131c-.16-.17-.34-.35-.54-.53A27.8,27.8,0,0,1,45.9,128a8.21,8.21,0,0,1-1.09-1.64L43,125.5c-.18.09-.36.18-.54.29a3.46,3.46,0,0,0-.52.36,5.32,5.32,0,0,0-1,.94,6.25,6.25,0,0,0-1.25,2.7,5.14,5.14,0,0,0,.08,2.56,4.21,4.21,0,0,0,.44,1,4.65,4.65,0,0,0,.62.77,8.39,8.39,0,0,0,3.39,1.78c.62.21,1.24.38,1.82.57h0c-.51.45-1.06.91-1.62,1.39A14.54,14.54,0,0,0,41.57,141a5,5,0,0,0-.69,4.11A3.78,3.78,0,0,0,42,146.91a4.12,4.12,0,0,0,1.74.89l1.92-1c.39-.59.83-1.17,1.29-1.75a38.44,38.44,0,0,0,2.53-3.32A4.56,4.56,0,0,0,50.34,138.38Zm-3.1-1.51a4.73,4.73,0,0,1,.45.23l-1,.27Zm-3.77-10.05a4.41,4.41,0,0,0,.36.64l-.93-.32A4,4,0,0,1,43.47,126.82ZM41,129.93a4.42,4.42,0,0,1,.38-1.13,4.71,4.71,0,0,1,.64-.92l2.65.7.22.23a24.81,24.81,0,0,0,2,1.76Zm-.09.92,6.7.35a3.69,3.69,0,0,1,.49.6,2.1,2.1,0,0,1,.29.67l-6.73.38A3.24,3.24,0,0,1,40.94,130.85Zm4,3.9c-.43-.16-.86-.33-1.27-.52a8.26,8.26,0,0,1-1.13-.64l6-.58a2.84,2.84,0,0,1-.48,1.41l-2.69.46Zm1.67.56.87-.17-.34.36Zm-1.27,3.29.26-.23,2.79-.81a2.28,2.28,0,0,1,.72,1.25l-5.92,2A17.17,17.17,0,0,1,45.29,138.6Zm-.89,8-.45-.14.81-.42C44.64,146.2,44.51,146.39,44.4,146.58Zm1.6-2.16-.3.37L43.15,146a2.65,2.65,0,0,1-1-1.43l5.73-2.47C47.33,142.85,46.66,143.61,46,144.42Zm-4-.58a3.82,3.82,0,0,1,.48-2l6.61-2.39a3.69,3.69,0,0,1-.59,1.74Z" transform="translate(-39.63 -18.06)"/><path class="cls-8" d="M132.13,28a17.33,17.33,0,0,0-4.44,1.49c-1.41.71-2.07,1.51-2.88,4-.37,1.14-.48,2.36-.81,3.52-.22.76-.47,1.5-.75,2.24-1.29,3.48-2.32,4.67-3.38,5.44A7.74,7.74,0,0,1,116.78,46L115.54,46a2.29,2.29,0,0,1-1.57-.89c-.15-.24-.51-1,.79-3.86,1-2.21,1.94-3.41,3-6.06a3.31,3.31,0,0,0,.23-2.46,2.22,2.22,0,0,0-1.32-1.34c-1.06-.24-1.64,1.17-3.33,2.67-1.9,1.67-4.56,2.89-5.2,2.18-.34-.38-.11-1.3.2-1.83s.77-.67,2.32-1.45c1.73-.88,2.07-1.25,2.27-1.71a2.89,2.89,0,0,0,.19-1.36,2.16,2.16,0,0,0-.56-1.46c-.56-.47-1.38-.15-1.92.06a5.34,5.34,0,0,0-2.22,1.74c-.9,1.1-.74,1.39-1.69,2.75s-1.58,2.2-2.51,2.13a1.93,1.93,0,0,1-1.46-1c-.76-1.5,1-3.75,1.35-4.19.61-.78.77-.7,3.45-2.8,1.8-1.41,2.6-2.13,3-3.4a3.32,3.32,0,0,0,.12-1.8,3.74,3.74,0,0,0-1.74-2.29c-2.48-1.36-6.18,2.48-6.47,2.78-2,2.12-2.72,4.44-4,8.52a19,19,0,0,0-1,5.55c-.13,2.08.06,4.75.1,5.88a64.51,64.51,0,0,1-.3,8.5,41.71,41.71,0,0,1-2,8.73,20.52,20.52,0,0,1-1.62,3.73,16.54,16.54,0,0,1-12.14,8c-3.94.44-10.81-.45-12.46-1.23" transform="translate(-39.63 -18.06)"/><path class="cls-9" d="M115.74,102.19s1.22-.68,2.55-1.55a3.64,3.64,0,0,0,.82-4.67c-.88-1.69-.56-3.77.73-4.6" transform="translate(-39.63 -18.06)"/><path class="cls-10" d="M146.81,24.48v-.06a1.35,1.35,0,0,0,0-.28c0-1.25-3.17-2.25-7-2.25s-6.94,1-6.94,2.25c0,0,0,.07,0,.1h0v8h0a0,0,0,0,0,0,0c0,1.24,3.11,2.25,6.94,2.25s6.94-1,6.94-2.25a0,0,0,0,0,0,0h0Z" transform="translate(-39.63 -18.06)"/><ellipse class="cls-11" cx="100.31" cy="6.08" rx="6.94" ry="2.25"/><path class="cls-12" d="M132.91,28.7a.41.41,0,0,0-.13.24c0,.54,2.41,1.82,7.08,1.82s7.08-1.28,7.08-1.82a.4.4,0,0,0-.14-.25V27l.37.21a2.07,2.07,0,0,1,1.15,1.72c0,1.54-2.65,3.21-8.46,3.21s-8.46-1.67-8.46-3.21a2.05,2.05,0,0,1,1.11-1.7c.12-.08.26-.15.4-.23Z" transform="translate(-39.63 -18.06)"/><path class="cls-12" d="M132.91,26.23a.47.47,0,0,0-.13.24c0,.55,2.41,1.83,7.08,1.83s7.08-1.28,7.08-1.83a.45.45,0,0,0-.14-.25V24.54a3.28,3.28,0,0,1,.37.22,2.06,2.06,0,0,1,1.15,1.71c0,1.55-2.65,3.21-8.46,3.21S131.4,28,131.4,26.47a2,2,0,0,1,1.11-1.69,3.81,3.81,0,0,1,.4-.23Z" transform="translate(-39.63 -18.06)"/><path class="cls-13" d="M169.36,28.88l-.09,0c-1.06-.64-3.53,1.5-5.51,4.78s-2.72,6.46-1.66,7.1l.09,0v0L169,44.9h0c1.07.65,3.53-1.49,5.51-4.78s2.72-6.46,1.66-7.1h0Z" transform="translate(-39.63 -18.06)"/><ellipse class="cls-11" cx="165.73" cy="34.71" rx="6.94" ry="2.25" transform="matrix(0.52, -0.86, 0.86, 0.52, 10.79, 140.64)"/><path class="cls-12" d="M166,43.08a.43.43,0,0,0,.14.24c.47.28,2.81-1.12,5.22-5.12s2.56-6.72,2.09-7a.45.45,0,0,0-.28,0l-1.44-.87.37-.2a2.06,2.06,0,0,1,2.06-.1c1.33.8,1.38,3.93-1.62,8.9s-5.79,6.39-7.11,5.59a2,2,0,0,1-.88-1.82,3.57,3.57,0,0,1,0-.46Z" transform="translate(-39.63 -18.06)"/><path class="cls-12" d="M163.89,41.81c0,.13.09.21.14.23.47.29,2.81-1.11,5.22-5.11s2.56-6.72,2.09-7a.4.4,0,0,0-.28,0L169.62,29l.37-.2a2.06,2.06,0,0,1,2.06-.1c1.33.8,1.39,3.92-1.62,8.9s-5.79,6.39-7.11,5.59a2,2,0,0,1-.88-1.83c0-.14,0-.3,0-.46Z" transform="translate(-39.63 -18.06)"/><path class="cls-14" d="M194.92,50.88l0-.1c-.22-1.22-3.45-1.67-7.22-1S181,52,181.23,53.2a.3.3,0,0,0,0,.1h0l1.39,7.85h0v0c.22,1.22,3.45,1.67,7.22,1s6.66-2.21,6.44-3.43a0,0,0,0,0,0,0h0Z" transform="translate(-39.63 -18.06)"/><ellipse class="cls-11" cx="188.13" cy="51.98" rx="6.94" ry="2.25" transform="translate(-45.81 15.54) rotate(-10.04)"/><path class="cls-12" d="M182,57.69a.43.43,0,0,0-.08.26c.09.54,2.69,1.38,7.28.57s6.75-2.5,6.65-3a.45.45,0,0,0-.17-.22l-.3-1.65a3.93,3.93,0,0,1,.41.14,2.08,2.08,0,0,1,1.43,1.49c.27,1.52-2,3.62-7.77,4.64s-8.63-.17-8.89-1.69a2.05,2.05,0,0,1,.79-1.86l.35-.3Z" transform="translate(-39.63 -18.06)"/><path class="cls-12" d="M181.58,55.27a.39.39,0,0,0-.08.25c.09.54,2.69,1.38,7.28.57s6.75-2.5,6.66-3a.46.46,0,0,0-.18-.23L195,51.18a2.74,2.74,0,0,1,.4.15,2.06,2.06,0,0,1,1.43,1.49c.27,1.52-2.05,3.62-7.77,4.63s-8.62-.16-8.89-1.68a2,2,0,0,1,.79-1.86l.35-.3Z" transform="translate(-39.63 -18.06)"/><path class="cls-15" d="M183.28,104.9a.51.51,0,0,1,.09.08c1,1.18,4.69-.26,8.33-3.21s5.81-6.31,4.85-7.49a.24.24,0,0,0-.08-.09v0l-6.15-7.57h0l0,0c-1-1.18-4.69.26-8.33,3.22s-5.81,6.31-4.85,7.49l0,0,0,0Z" transform="translate(-39.63 -18.06)"/><ellipse class="cls-11" cx="189.89" cy="99.69" rx="8.49" ry="2.75" transform="translate(-59.98 123.99) rotate(-39.09)"/><path class="cls-12" d="M193.05,89.94a.5.5,0,0,0-.07-.33c-.42-.52-3.69.12-8.13,3.73s-5.73,6.68-5.31,7.19a.47.47,0,0,0,.32.14l1.3,1.59-.52.09a2.54,2.54,0,0,1-2.42-.75c-1.19-1.47,0-5.09,5.56-9.58s9.32-4.94,10.52-3.48a2.56,2.56,0,0,1,.25,2.47c-.06.17-.12.34-.2.52Z" transform="translate(-39.63 -18.06)"/><path class="cls-12" d="M195,92.28a.5.5,0,0,0-.07-.33c-.42-.52-3.69.12-8.13,3.73s-5.73,6.68-5.31,7.19a.5.5,0,0,0,.32.14l1.3,1.59-.52.09a2.51,2.51,0,0,1-2.41-.75c-1.2-1.47,0-5.09,5.55-9.58s9.32-4.94,10.52-3.48a2.53,2.53,0,0,1,.25,2.47c-.06.17-.12.34-.2.52Z" transform="translate(-39.63 -18.06)"/><path class="cls-16" d="M138.89,76.77a1.09,1.09,0,0,1,0-.15c0-1.91-4.84-3.38-10.73-3.27S117.5,75.08,117.54,77a.76.76,0,0,0,0,.15h0l.21,12.26h0v0c0,1.91,4.84,3.38,10.73,3.28s10.63-1.73,10.6-3.64v0h0Z" transform="translate(-39.63 -18.06)"/><ellipse class="cls-11" cx="128.32" cy="76.8" rx="10.67" ry="3.46" transform="translate(-40.93 -15.85) rotate(-0.98)"/><path class="cls-12" d="M117.64,84a.63.63,0,0,0-.19.37c0,.85,3.75,2.75,10.93,2.63s10.84-2.16,10.83-3a.61.61,0,0,0-.22-.38L139,81a6.29,6.29,0,0,1,.58.32,3.2,3.2,0,0,1,1.81,2.6c0,2.38-4,5-12.93,5.16s-13-2.33-13.09-4.71A3.15,3.15,0,0,1,117,81.77a5.61,5.61,0,0,1,.6-.37Z" transform="translate(-39.63 -18.06)"/><path class="cls-12" d="M117.57,80.2a.72.72,0,0,0-.19.38c0,.84,3.75,2.74,10.93,2.62s10.85-2.16,10.84-3a.81.81,0,0,0-.22-.38l0-2.58c.2.1.39.21.57.32a3.18,3.18,0,0,1,1.81,2.61c0,2.37-4,5-12.92,5.16s-13-2.34-13.09-4.72A3.13,3.13,0,0,1,116.92,78l.6-.36Z" transform="translate(-39.63 -18.06)"/><path class="cls-17" d="M90.87,79.05h0a1.23,1.23,0,0,0,0-.19c-.52-2.2-6.44-2.68-13.23-1.08s-11.87,4.67-11.35,6.88a1.09,1.09,0,0,0,0,.17h0L69.57,99h0a.13.13,0,0,0,0,.06c.52,2.2,6.44,2.69,13.23,1.09s11.87-4.68,11.35-6.88c0,0,0,0,0-.06h0Z" transform="translate(-39.63 -18.06)"/><ellipse class="cls-11" cx="78.45" cy="81.72" rx="12.63" ry="4.09" transform="translate(-56.28 2.1) rotate(-13.26)"/><path class="cls-12" d="M68.11,92.74a.79.79,0,0,0-.13.48c.23,1,5,2.24,13.3.29s12-5.23,11.78-6.2a.81.81,0,0,0-.35-.38L92,84c.26.07.51.14.75.23,1.93.68,2.56,1.77,2.75,2.56.64,2.74-3.35,6.79-13.65,9.21s-15.68.59-16.33-2.15a3.73,3.73,0,0,1,1.26-3.46c.19-.19.39-.39.61-.58Z" transform="translate(-39.63 -18.06)"/><path class="cls-12" d="M67.08,88.38a.77.77,0,0,0-.13.48c.23,1,5,2.23,13.3.28S92.26,83.92,92,83a.72.72,0,0,0-.35-.38l-.7-3c.27.07.52.14.75.22,1.93.69,2.56,1.77,2.75,2.56.64,2.74-3.35,6.79-13.65,9.22s-15.68.58-16.33-2.15A3.73,3.73,0,0,1,65.76,86c.19-.2.39-.39.61-.58Z" transform="translate(-39.63 -18.06)"/><path class="cls-18" d="M70.18,62.43l-8.8,0-.55-2.67,8.64,0S70.1,61.85,70.18,62.43Z" transform="translate(-39.63 -18.06)"/><polygon class="cls-19" points="30.53 42.83 37.89 48.32 37.89 37.35 30.53 42.83"/><line class="cls-20" x1="30.12" y1="163.61" x2="27.98" y2="167.92"/><circle class="cls-21" cx="26.6" cy="171.07" r="4.22"/><text class="cls-22" transform="translate(23.78 171.4) rotate(26.33)">m</text><line class="cls-20" x1="34.81" y1="143.48" x2="37.88" y2="139.77"/><circle class="cls-23" cx="39.95" cy="137.03" r="4.22"/><text class="cls-24" transform="matrix(0.99, 0.12, -0.12, 0.99, 37.3, 138.26)">m</text><circle class="cls-25" cx="92.3" cy="149.43" r="4.22"/><text class="cls-26" transform="translate(89.81 150.92)">m</text><line class="cls-20" x1="92.3" y1="153.51" x2="92.3" y2="158.32"/><line class="cls-20" x1="39.41" y1="169.12" x2="39.4" y2="173.93"/><circle class="cls-27" cx="39.56" cy="177.37" r="4.22"/><text class="cls-28" transform="translate(37.25 179.03) rotate(0.13)">m</text><line class="cls-20" x1="14.27" y1="143.8" x2="11.04" y2="147.36"/><circle class="cls-29" cx="8.86" cy="150.02" r="4.22"/><text class="cls-30" transform="translate(6.02 149.47) rotate(42.11)">m</text><path class="cls-31" d="M76.28,178.4l-2.08,3.86a11.21,11.21,0,0,1-4.51.5,10.12,10.12,0,0,1-2.35-.55A10.88,10.88,0,0,1,65,181a10.22,10.22,0,0,1-4.48-7.69,23,23,0,0,1,1.13-8.5c.39-1.4.84-2.78,1.2-4.07h0c-1.32.27-2.71.59-4.15.87a22.36,22.36,0,0,1-8.6.33,12.45,12.45,0,0,1-2.1-.66,10.37,10.37,0,0,1-2-1.1,10.8,10.8,0,0,1-1.77-1.63,11.26,11.26,0,0,1-1.47-2.22,10.58,10.58,0,0,1-1.22-5.18,11,11,0,0,1,.35-2.39,17.24,17.24,0,0,1,1-2.53l3.43-1.12c.68.2,2,.5,2.66.65s1.41.26,2.14.37,1.37.19,2.06.27l2.08.25,2,.26c.67.1,1.3.22,1.92.35a14.56,14.56,0,0,1,1.76.47,9.36,9.36,0,0,1,1.58.66,6.82,6.82,0,0,1,2.5,2.2,6.9,6.9,0,0,1,.83,1.62,7.13,7.13,0,0,1,.39,1.73,14.08,14.08,0,0,1-.2,3.84h0a16.91,16.91,0,0,1,2-.07,11.26,11.26,0,0,1,1.87.21,7.55,7.55,0,0,1,1.72.57,6.41,6.41,0,0,1,.81.45,6.06,6.06,0,0,1,.78.58,7.47,7.47,0,0,1,2.08,2.83,12.54,12.54,0,0,1,.84,3.56,68.73,68.73,0,0,1,0,8.25A37.62,37.62,0,0,0,76.28,178.4ZM46.88,148c-.51-.12-1-.25-1.52-.41a11.64,11.64,0,0,0-.49,1.17Zm6.85.91c-1-.09-2.06-.17-3.12-.29l-.69-.09-5.51,2.31a6.83,6.83,0,0,0,.1,2.06,10.12,10.12,0,0,0,.27,1.05c.1.27.21.53.33.8l.13.26,11.38-5.81m5.38,2a6,6,0,0,0-1.45-1,8,8,0,0,0-.85-.35c-.3-.1-.6-.19-.92-.27l-12.55,6.92A7.45,7.45,0,0,0,48,158.08a8.45,8.45,0,0,0,2.06.91Zm1.78,4a5.8,5.8,0,0,0-1-3.06L52.47,159.4a17.87,17.87,0,0,0,2.92,0c1-.07,2-.22,3-.38l.92-.16Zm-.27,2.81c.06-.33.12-.66.17-1l-1.41,1.19Zm3.17,2.11c-.38,0-.76,0-1.15.08-.11.48-.24.95-.37,1.43Zm4.78,1.41a5.89,5.89,0,0,0-1.41-.88,6,6,0,0,0-1.56-.44l-4.12,4.33-.17.67a27.82,27.82,0,0,0-1,6.07Zm2.2,4.5a7.32,7.32,0,0,0-1.28-3.52l-9,11.16a7.6,7.6,0,0,0,2,3.92Zm-.13,9.06,0-.94c0-1,.11-2,.16-3s.08-1.92.08-2.83l-7.13,10.41A7.27,7.27,0,0,0,70.55,180Zm.14,4.37c0-.43-.09-.87-.11-1.31l-.93,1.59A8,8,0,0,0,73.67,179.53Z" transform="translate(-39.63 -18.06)"/><path class="cls-32" d="M119,189.17l-.27,4.38a11.74,11.74,0,0,1-3.63,2.41,8.82,8.82,0,0,1-2.19.57,10,10,0,0,1-6.69-1.45,10.72,10.72,0,0,1-3-2.91,18.74,18.74,0,0,1-2-3.74c-.55-1.33-1-2.7-1.42-4s-.83-2.77-1.27-4.05h0c-1,1-1.93,2-2.94,3.07s-2,2-3.07,3c-.55.46-1.12.93-1.7,1.33A17,17,0,0,1,89,188.8a13.46,13.46,0,0,1-2,.81,9.83,9.83,0,0,1-2.11.39,10.71,10.71,0,0,1-2.25-.07,10.85,10.85,0,0,1-2.39-.69,10.24,10.24,0,0,1-6.09-7l2.08-3.86a35.61,35.61,0,0,0,3.64-2.26,67.16,67.16,0,0,1,6.91-4.5,12.24,12.24,0,0,1,3.48-1.21,7.31,7.31,0,0,1,1.81-.1,7.15,7.15,0,0,1,.91.14,8.72,8.72,0,0,1,1,.23,6.94,6.94,0,0,1,1.82.86,7.6,7.6,0,0,1,1.5,1.2,13.34,13.34,0,0,1,2.24,3.32h0a16.39,16.39,0,0,1,1.71-1.14,9.74,9.74,0,0,1,1.8-.83,8,8,0,0,1,4-.32,8.55,8.55,0,0,1,1.9.53,8.75,8.75,0,0,1,1.64.92,11.58,11.58,0,0,1,2.65,2.75,45.91,45.91,0,0,1,3.89,7.36C117.72,186.67,118.34,188,119,189.17Zm-40.89-8.71c-.45.26-.9.51-1.36.75.12.4.25.79.4,1.17Zm8.08-5.59c-1.57,1-3.2,2.26-4.94,3.51l-.57.4-2.54,5.41a7.07,7.07,0,0,0,1.36,1.43,7.53,7.53,0,0,0,1.82,1.07Zm5.66-1.79a5.55,5.55,0,0,0-1.86.09,8.71,8.71,0,0,0-1.84.63L83,187.16a6.83,6.83,0,0,0,2.21,0,9.15,9.15,0,0,0,2.1-.6ZM96,175.31a7.17,7.17,0,0,0-1.25-1.15,5.66,5.66,0,0,0-1.55-.79l-3.84,12a31.39,31.39,0,0,0,4.46-3.91l.65-.67Zm1.5,2.48c-.14-.3-.3-.61-.45-.9l-.46,1.78Zm4,0c-.32.22-.63.45-.94.7.17.46.34.93.5,1.4Zm5.07-1.29a6.22,6.22,0,0,0-1.77,0,7.72,7.72,0,0,0-1.65.44L102,182.78l.21.66a33.17,33.17,0,0,0,2.3,5.68Zm4.43,2.84a9.6,9.6,0,0,0-1.39-1.45,6.07,6.07,0,0,0-1.65-1l-2.12,14.17a7.36,7.36,0,0,0,3.44,2.42Zm4.18,8.1-.39-.85c-.84-1.89-1.64-3.72-2.53-5.31l-1.38,12.53a7,7,0,0,0,3.81-.69Zm2,3.86c-.23-.37-.44-.75-.65-1.13l-.13,1.83C116.67,191.79,116.93,191.56,117.19,191.31Z" transform="translate(-39.63 -18.06)"/><path class="cls-33" d="M162.51,188.47l.3,4.38a9.83,9.83,0,0,1-7.45,4.16,9.15,9.15,0,0,1-4.19-.73,11.08,11.08,0,0,1-3.32-2.29,32.53,32.53,0,0,1-4.92-6.83c-.75-1.26-1.48-2.5-2.24-3.63h0c-.7,1.16-1.38,2.43-2.07,3.72a31.56,31.56,0,0,1-4.64,7,10.84,10.84,0,0,1-3.26,2.41,9.25,9.25,0,0,1-2,.68,10.32,10.32,0,0,1-2.27.2,9.41,9.41,0,0,1-4.43-1.19,11.62,11.62,0,0,1-3.29-2.84l.27-4.38c.82-1.1,1.59-2.32,2.36-3.55s1.48-2.4,2.27-3.57a24.35,24.35,0,0,1,2.56-3.24,11.05,11.05,0,0,1,3.09-2.36,8.87,8.87,0,0,1,8,.09,12.21,12.21,0,0,1,3.26,2.6h0a9.75,9.75,0,0,1,7.27-3.92,9.54,9.54,0,0,1,7.22,3,37.4,37.4,0,0,1,5,6.71C160.9,186.17,161.69,187.38,162.51,188.47Zm-41,1.82q-.43.63-.9,1.23a11.71,11.71,0,0,0,.8.92Zm5.37-8.25a54.29,54.29,0,0,0-3.33,5.1l-.37.59-.24,6a6.8,6.8,0,0,0,3.64,1.11Zm5-3.6a7.21,7.21,0,0,0-3.46,1.91l-.24,14.33a7.63,7.63,0,0,0,3.66-2Zm5,.9a6.58,6.58,0,0,0-3.47-1l0,12.61a40.61,40.61,0,0,0,3.06-5.06l.45-.82Zm2.23,2c-.23-.26-.47-.51-.71-.75l0,1.84C138.56,182,138.79,181.67,139,181.31Zm4-1a11.55,11.55,0,0,0-.79.9c.29.41.57.83.85,1.25ZM148,178a6.66,6.66,0,0,0-3.45,1.11l.19,6,.35.59a40.93,40.93,0,0,0,3.4,5.09Zm5.08,2a7.47,7.47,0,0,0-3.57-1.86l.6,14.32a7.29,7.29,0,0,0,3.68,1.77Zm5.46,7.34-.5-.79a51.93,51.93,0,0,0-3.35-4.85l.66,12.59a6.81,6.81,0,0,0,3.54-1.26Zm2.48,3.54-.78-1,.12,1.83C160.57,191.38,160.79,191.12,161,190.83Z" transform="translate(-39.63 -18.06)"/><path class="cls-34" d="M202.41,188.27h0a6.77,6.77,0,0,1-3.39,1.59l-1.86-12.48A20,20,0,0,0,199.1,179l-.09-3.82a41.56,41.56,0,0,0-5.17-3.22,8.85,8.85,0,0,0-4.05-.38,9.73,9.73,0,0,0-6.87,4.6h0a11.91,11.91,0,0,0-3.49-2.29,9,9,0,0,0-8.11.71,11.21,11.21,0,0,0-2.87,2.68,37.19,37.19,0,0,0-4.06,7.33c-.61,1.33-1.22,2.63-1.88,3.82l.3,4.38a11.37,11.37,0,0,0,3.53,2.41,9.13,9.13,0,0,0,4.43.69,9,9,0,0,0,4-1.31,11,11,0,0,0,3-2.72,32.31,32.31,0,0,0,3.93-7.45c.57-1.35,1.12-2.67,1.71-3.9h0c.86,1.06,1.71,2.22,2.57,3.4a32.38,32.38,0,0,0,5.54,6.34,9.68,9.68,0,0,0,7.76,2.3,15.67,15.67,0,0,0,4.07-1.63S202.42,188.28,202.41,188.27Zm-38.09,2.34c.26-.44.5-.88.74-1.33l.16,2.14A11.34,11.34,0,0,1,164.32,190.61Zm2.54,1.88-.47-6,.3-.64a49.26,49.26,0,0,1,2.75-5.44l1.09,12.73A6.68,6.68,0,0,1,166.86,192.49Zm5.21.4-1.27-14.28a7.29,7.29,0,0,1,3.29-2.25l1.37,14.18A7.53,7.53,0,0,1,172.07,192.89Zm7.32-9.6a44.14,44.14,0,0,1-2.56,5.34l-1.26-12.56a6.49,6.49,0,0,1,3.57.7l.61,5.66Zm1.59-3.62-.2-1.83c.26.21.52.44.78.68C181.36,178.89,181.17,179.28,181,179.67Zm3.8-1.53c.23-.34.46-.66.7-1l.26,2.13C185.43,178.91,185.11,178.52,184.78,178.14Zm3.21,4.15-.41-.56-.74-5.93a6.51,6.51,0,0,1,3.32-1.44L191.85,187A42,42,0,0,1,188,182.29Zm5.63,6.24-2-14.2a7.38,7.38,0,0,1,3.74,1.52l2,14.09A7.34,7.34,0,0,1,193.62,188.53Z" transform="translate(-39.63 -18.06)"/><path class="cls-18" d="M42.78,156.3a11.26,11.26,0,0,0,1.47,2.22A10.8,10.8,0,0,0,46,160.15a10.37,10.37,0,0,0,2,1.1,12.45,12.45,0,0,0,2.1.66,22.36,22.36,0,0,0,8.6-.33c1.44-.28,2.83-.6,4.15-.87h0c-.36,1.29-.81,2.67-1.2,4.07a23,23,0,0,0-1.13,8.5A10.22,10.22,0,0,0,65,181a10.88,10.88,0,0,0,2.35,1.24,10.12,10.12,0,0,0,2.35.55,11.21,11.21,0,0,0,4.51-.5l2.08-3.86a37.62,37.62,0,0,1-.11-4.27,68.73,68.73,0,0,0,0-8.25,12.54,12.54,0,0,0-.84-3.56,7.47,7.47,0,0,0-2.08-2.83,6.06,6.06,0,0,0-.78-.58,6.41,6.41,0,0,0-.81-.45,7.55,7.55,0,0,0-1.72-.57,11.26,11.26,0,0,0-1.87-.21,16.91,16.91,0,0,0-2,.07h0a14.06,14.06,0,0,0,.2-3.84,7.13,7.13,0,0,0-.39-1.73,6.9,6.9,0,0,0-.83-1.62,6.82,6.82,0,0,0-2.5-2.2A9.36,9.36,0,0,0,61,147.7c-.38-.13-1.19-.35-1.19-.35l-3.16,1.89-11.38,5.81Zm22.75,4c.39,0,.77-.07,1.15-.08l-1.52,1.51C65.29,161.22,65.42,160.75,65.53,160.27ZM50.05,159a8.45,8.45,0,0,1-2.06-.91,7.45,7.45,0,0,1-1.76-1.53l12.55-6.92c.32.08.62.17.92.27a8,8,0,0,1,.85.35,6,6,0,0,1,1.45,1Zm8.36,0c-1,.16-2,.31-3,.38a17.87,17.87,0,0,1-2.92,0l10.36-7.19a5.8,5.8,0,0,1,1,3.06l-4.45,3.55Zm3.86-.69,1.41-1.19c0,.32-.11.65-.17,1Zm1.93,7c.06-.22.12-.44.17-.67l4.12-4.33a6,6,0,0,1,1.56.44,5.89,5.89,0,0,1,1.41.88l-8.25,9.75A27.82,27.82,0,0,1,64.2,165.28Zm-.81,8.46,9-11.16a7.32,7.32,0,0,1,1.28,3.52l-8.32,11.56A7.6,7.6,0,0,1,63.39,173.74Zm9.24,6.07.93-1.59c0,.44.06.88.11,1.31A8,8,0,0,1,72.63,179.81Zm1.09-8.62c0,1-.11,2-.16,3l0,.94-3,4.86a7.27,7.27,0,0,1-3.88-1.25l7.13-10.41C73.8,169.27,73.77,170.21,73.72,171.19Z" transform="translate(-39.63 -18.06)"/><path class="cls-18" d="M106.67,173.73a8.19,8.19,0,0,0-3.62.38,9.74,9.74,0,0,0-1.8.83,16.39,16.39,0,0,0-1.71,1.14h0a13.34,13.34,0,0,0-2.24-3.32,7.6,7.6,0,0,0-1.5-1.2A6.94,6.94,0,0,0,94,170.7a8.72,8.72,0,0,0-1-.23,7.15,7.15,0,0,0-.91-.14,7.31,7.31,0,0,0-1.81.1,12.24,12.24,0,0,0-3.48,1.21,67.16,67.16,0,0,0-6.91,4.5,35.61,35.61,0,0,1-3.64,2.26l-2.08,3.86a10.24,10.24,0,0,0,6.09,7,10.85,10.85,0,0,0,2.39.69,10.71,10.71,0,0,0,2.25.07,9.83,9.83,0,0,0,2.11-.39,13.46,13.46,0,0,0,2-.81,17,17,0,0,0,1.83-1.09c.58-.4,1.15-.87,1.7-1.33,1.09-.94,2.11-2,3.07-3s2-2.12,2.94-3.07h0c.44,1.28.84,2.67,1.27,4.05s.87,2.7,1.42,4a18.22,18.22,0,0,0,2.39,4.24l.65-4a41.55,41.55,0,0,1-2-5.19l-.21-.66,1.14-5.87a7.72,7.72,0,0,1,1.65-.44,6,6,0,0,1,1.4,0m-29,5.92c-.15-.38-.28-.77-.4-1.17.46-.24.91-.49,1.36-.75Zm4.17,4.31a7.53,7.53,0,0,1-1.82-1.07,7.07,7.07,0,0,1-1.36-1.43l2.54-5.41.57-.4c1.74-1.25,3.37-2.52,4.94-3.51Zm6-.12a9.15,9.15,0,0,1-2.1.6,6.83,6.83,0,0,1-2.21,0l5.18-13.36a8.71,8.71,0,0,1,1.84-.63,5.55,5.55,0,0,1,1.86-.09Zm7.21-5.77-.65.67a31.39,31.39,0,0,1-4.46,3.91l3.84-12a5.66,5.66,0,0,1,1.55.79A7.17,7.17,0,0,1,96,175.31Zm2.12-2.13.46-1.78c.15.29.31.6.45.9Zm4.45,1.23c-.16-.47-.33-.94-.5-1.4.31-.25.62-.48.94-.7Z" transform="translate(-39.63 -18.06)"/></svg>